<svg width="50" height="25" viewBox="0 0 50 25" fill="none" xmlns="http://www.w3.org/2000/svg">
<path d="M49.4271 10.7268C49.4265 10.7263 49.4261 10.7256 49.4254 10.725L39.2199 0.568743C38.4554 -0.192096 37.2187 -0.189265 36.4577 0.575383C35.6968 1.33993 35.6997 2.57655 36.4642 3.33749L43.3162 10.1562H1.95312C0.874414 10.1562 0 11.0307 0 12.1094C0 13.1881 0.874414 14.0625 1.95312 14.0625H43.3161L36.4643 20.8812C35.6998 21.6422 35.6969 22.8788 36.4578 23.6433C37.2188 24.4081 38.4556 24.4107 39.22 23.65L49.4255 13.4937C49.4261 13.4931 49.4265 13.4925 49.4272 13.4919C50.1922 12.7284 50.1897 11.4878 49.4271 10.7268Z" fill="white"/>
</svg>
